# xmcd CD database file
#
# Track frame offsets:
#	150
#	13424
#	27973
#	39740
#	50029
#	62328
#	79840
#	92597
#	108085
#	122087
#	140664
#	160464
#	173874
#	198680
#	224386
#	236693
#	246011
#	263411
#	275448
#	287128
#	297459
#	311033
#	328414
#
# Disc length: 4565 seconds
#
# Revision: 1
# Processed by: cddbd v1.5.2PL0 Copyright (c) Steve Scherf et al.
# Submitted via: CDex 1.51
#
DISCID=6411d317
DTITLE=Various JZZ - Alles Skiffle - oder? [CD 2]
DYEAR=2011
DGENRE=Jazz
TTITLE0=Going Home - Skiffle Track
TTITLE1=Hermann's kleine Hafenbar - Skiffle Connexion
TTITLE2=Wochenend und Sonnenschein - J.J. Tabb Skiffle Group
TTITLE3=Two Step De Bayou Tech - Zwei-Mann Kapelle
TTITLE4=Ham 'n Eggs - The New Skiffle Spirits
TTITLE5=So isses bei uns - Brentwood Skifflers
TTITLE6=American Minstrel - Lutz Eikelmann and Sean Moyses
TTITLE7=Ich wollt' ich wär ein Huhn - The New Skiffle Spirits
TTITLE8=C'est pas la peine de pleurer - Yellow Moon
TTITLE9=I'm Crazy 'bout My Baby - Jean Babtistes Jug Band
TTITLE10=Folsome Prison Blues - Timmendorfer Skiffle Group
TTITLE11=Nach Amerika - Black Bottom Skiffle Group
TTITLE12=Hit The Road Jack - Sundown Skifflers
TTITLE13=What's The Matter Blues - Notty's Jug Serenaders
TTITLE14=Du mutt dat nu betohln - Sundown Skifflers
TTITLE15=Maggie May - Skiffle Brothers
TTITLE16=It Ain't Nobody's Business - Notty's Jug Serenaders
TTITLE17=What Goes On - Timmendorfer Skiffle Group
TTITLE18=Kansas City Blues - Notty's Jug Serenaders
TTITLE19=Does Your Chewing Gum - Skiffle Bothers
TTITLE20=Lost John - Brentwood Skifflers
TTITLE21=TB Blues - The Rainy Skifflemen
TTITLE22=Suitcase In My Hand - Skiffle Connexion
EXTD=YEAR: 2011
EXTT0=
EXTT1=
EXTT2=
EXTT3=
EXTT4=
EXTT5=
EXTT6=
EXTT7=
EXTT8=
EXTT9=
EXTT10=
EXTT11=
EXTT12=
EXTT13=
EXTT14=
EXTT15=
EXTT16=
EXTT17=
EXTT18=
EXTT19=
EXTT20=
EXTT21=
EXTT22=
PLAYORDER=
